<?xml version="1.0" encoding="UTF-8" standalone="no"?>
<svg xmlns:inkscape="http://www.inkscape.org/namespaces/inkscape" xmlns:rdf="http://www.w3.org/1999/02/22-rdf-syntax-ns#" xmlns="http://www.w3.org/2000/svg" sodipodi:docname="send.svg" height="50" width="50" version="1.1" xmlns:cc="http://creativecommons.org/ns#" xmlns:dc="http://purl.org/dc/elements/1.1/" inkscape:version="0.91 r13725" viewBox="0 0 50.000001 50.000001" xmlns:sodipodi="http://sodipodi.sourceforge.net/DTD/sodipodi-0.dtd">
 <defs>
  <filter id="filter4185" style="color-interpolation-filters:sRGB" height="1.0512" width="1.0307" y="-.025605" x="-.015358" inkscape:collect="always">
   <feGaussianBlur stdDeviation="0.24687622" inkscape:collect="always"/>
  </filter>
 </defs>
 <sodipodi:namedview bordercolor="#666666" inkscape:pageshadow="2" inkscape:window-y="18" pagecolor="#ffffff" inkscape:window-height="750" inkscape:window-maximized="1" inkscape:zoom="11.74" inkscape:window-x="0" showgrid="false" borderopacity="1.0" inkscape:current-layer="layer1" inkscape:cx="25" inkscape:cy="25" units="px" inkscape:window-width="1366" inkscape:pageopacity="0.0" inkscape:document-units="px"/>
 <g inkscape:label="Layer 1" inkscape:groupmode="layer" transform="translate(0 -1002.4)">
  <path opacity=".246" d="m16.712 1040.6c0-0.2143 0.21433-0.3215 0.64298-0.3215h0.64298v-4.1793-4.1794l-1.661 0.014-1.661 0.014-1.8926 2.2364c-1.8563 2.1936-1.9101 2.2364-2.8066 2.2364-1.3808 0-1.6234-0.3948-1.6234-2.6423 0-1.5091 0.06044-1.8585 0.32149-1.8585 0.17682 0 0.32149-0.1447 0.32149-0.3215 0-0.2492 0.30129-0.3263 1.3395-0.343 1.1725-0.019 1.246-0.043 0.5894-0.1913-0.41258-0.093-1.3047-0.2353-1.9825-0.3154l-1.2324-0.1456v-1.2551-1.2551l1.2324-0.1457c0.67781-0.08 1.5699-0.222 1.9825-0.3153 0.6566-0.1486 0.5831-0.1725-0.5894-0.1913-1.0382-0.017-1.3395-0.094-1.3395-0.343 0-0.1769-0.14467-0.3215-0.32149-0.3215-0.26154 0-0.32149-0.3535-0.32149-1.8957 0-2.225 0.24236-2.6052 1.6607-2.6052 0.8492 0 0.93626 0.07 2.7694 2.2365l1.8926 2.2364 1.661 0.014 1.661 0.014v-4.1794-4.1793h-0.64298c-0.42865 0-0.64298-0.1072-0.64298-0.3215 0-0.2731 0.54031-0.321 3.59-0.3182 4.1831 0 5.7137 0.4542 2.3441 0.6897l-0.81724 0.057 2.8598 3.4292c2.3827 2.857 2.966 3.44 3.4963 3.4941 0.35007 0.036 1.6492 0.3468 2.8869 0.6913 1.5462 0.4303 3.3907 0.7327 5.894 0.9663 2.0039 0.1871 4.3969 0.5306 5.3176 0.7634 2.027 0.5125 4.0055 1.2346 4.0055 1.462 0 0.6631-4.8968 1.8455-9.3232 2.2512-2.6195 0.2401-4.2759 0.5152-5.8935 0.9789-1.2375 0.3547-2.5395 0.6505-2.8934 0.6573-0.5652 0.011-0.99228 0.4344-3.5126 3.4828l-2.8692 3.4704 0.83312 0.057c3.3923 0.2326 1.8622 0.6859-2.3282 0.6897-3.0496 0-3.59-0.045-3.59-0.3182z" inkscape:connector-curvature="0" filter="url(#filter4185)" fill="#1a1a1a"/>
  <path d="m14.712 1038.6c0-0.2143 0.21433-0.3215 0.64298-0.3215h0.64298v-4.1793-4.1794l-1.661 0.014-1.661 0.014-1.8926 2.2364c-1.8563 2.1936-1.9101 2.2364-2.8066 2.2364-1.3808 0-1.6234-0.3948-1.6234-2.6423 0-1.5091 0.06044-1.8585 0.32149-1.8585 0.17682 0 0.32149-0.1447 0.32149-0.3215 0-0.2492 0.30129-0.3263 1.3395-0.343 1.1725-0.019 1.246-0.043 0.5894-0.1913-0.41258-0.093-1.3047-0.2353-1.9825-0.3154l-1.2324-0.1456v-1.2551-1.2551l1.2324-0.1457c0.67781-0.08 1.5699-0.222 1.9825-0.3153 0.6566-0.1486 0.5831-0.1725-0.5894-0.1913-1.0382-0.017-1.3395-0.094-1.3395-0.343 0-0.1769-0.14467-0.3215-0.32149-0.3215-0.26154 0-0.32149-0.3535-0.32149-1.8957 0-2.225 0.24236-2.6052 1.6607-2.6052 0.8492 0 0.93626 0.07 2.7694 2.2365l1.8926 2.2364 1.661 0.014 1.661 0.014v-4.1794-4.1793h-0.64298c-0.42865 0-0.64298-0.1072-0.64298-0.3215 0-0.2731 0.54031-0.321 3.59-0.3182 4.1831 0 5.7137 0.4542 2.3441 0.6897l-0.81724 0.057 2.8598 3.4292c2.3827 2.857 2.966 3.44 3.4963 3.4941 0.35007 0.036 1.6492 0.3468 2.8869 0.6913 1.5462 0.4303 3.3907 0.7327 5.894 0.9663 2.0039 0.1871 4.3969 0.5306 5.3176 0.7634 2.027 0.5125 4.0055 1.2346 4.0055 1.462 0 0.6631-4.8968 1.8455-9.3232 2.2512-2.6195 0.2401-4.2759 0.5152-5.8935 0.9789-1.2375 0.3547-2.5395 0.6505-2.8934 0.6573-0.5652 0.011-0.99228 0.4344-3.5126 3.4828l-2.8692 3.4704 0.83312 0.057c3.3923 0.2326 1.8622 0.6859-2.3282 0.6897-3.0496 0-3.59-0.045-3.59-0.3182z" inkscape:connector-curvature="0" fill="#400973"/>
 </g>
</svg>
