<?xml version="1.0" encoding="UTF-8" standalone="no"?>
<svg
   xmlns:dc="http://purl.org/dc/elements/1.1/"
   xmlns:cc="http://creativecommons.org/ns#"
   xmlns:rdf="http://www.w3.org/1999/02/22-rdf-syntax-ns#"
   xmlns:svg="http://www.w3.org/2000/svg"
   xmlns="http://www.w3.org/2000/svg"
   xmlns:xlink="http://www.w3.org/1999/xlink"
   xmlns:sodipodi="http://sodipodi.sourceforge.net/DTD/sodipodi-0.dtd"
   xmlns:inkscape="http://www.inkscape.org/namespaces/inkscape"
   sodipodi:docname="send.svg"
   height="30"
   width="50"
   version="1.1"
   inkscape:version="0.91 r13725"
   viewBox="0 0 50.000001 30.000001"
   id="svg5211">
  <metadata
     id="metadata5226">
    <rdf:RDF>
      <cc:Work
         rdf:about="">
        <dc:format>image/svg+xml</dc:format>
        <dc:type
           rdf:resource="http://purl.org/dc/dcmitype/StillImage" />
        <dc:title></dc:title>
      </cc:Work>
    </rdf:RDF>
  </metadata>
  <defs
     id="defs5213">
    <filter
       id="filter4185"
       style="color-interpolation-filters:sRGB"
       height="1.0512"
       width="1.0307"
       y="-0.025605001"
       x="-0.015358"
       inkscape:collect="always">
      <feGaussianBlur
         stdDeviation="0.24687622"
         inkscape:collect="always"
         id="feGaussianBlur5216" />
    </filter>
    <clipPath
       id="rainbowClip">
      <use
         height="100%"
         width="100%"
         y="0"
         x="0"
         style="overflow:visible"
         xlink:href="#rocketClip"
         overflow="visible"
         id="use4445" />
    </clipPath>
    <clipPath
       id="clipPath5819">
      <use
         height="100%"
         width="100%"
         y="0"
         x="0"
         style="overflow:visible"
         xlink:href="#rocketClip"
         overflow="visible"
         id="use5821" />
    </clipPath>
    <clipPath
       id="clipPath5823">
      <use
         height="100%"
         width="100%"
         y="0"
         x="0"
         style="overflow:visible"
         xlink:href="#rocketClip"
         overflow="visible"
         id="use5825" />
    </clipPath>
    <clipPath
       id="clipPath5827">
      <use
         height="100%"
         width="100%"
         y="0"
         x="0"
         style="overflow:visible"
         xlink:href="#rocketClip"
         overflow="visible"
         id="use5829" />
    </clipPath>
    <clipPath
       id="clipPath5831">
      <use
         height="100%"
         width="100%"
         y="0"
         x="0"
         style="overflow:visible"
         xlink:href="#rocketClip"
         overflow="visible"
         id="use5833" />
    </clipPath>
    <clipPath
       id="rainbowClip-3">
      <use
         height="100%"
         width="100%"
         y="0"
         x="0"
         style="overflow:visible"
         xlink:href="#rocketClip"
         overflow="visible"
         id="use6914" />
    </clipPath>
    <clipPath
       id="clipPath7687">
      <use
         height="100%"
         width="100%"
         y="0"
         x="0"
         style="overflow:visible"
         xlink:href="#rocketClip"
         overflow="visible"
         id="use7689" />
    </clipPath>
    <clipPath
       id="clipPath7691">
      <use
         height="100%"
         width="100%"
         y="0"
         x="0"
         style="overflow:visible"
         xlink:href="#rocketClip"
         overflow="visible"
         id="use7693" />
    </clipPath>
    <clipPath
       id="clipPath7695">
      <use
         height="100%"
         width="100%"
         y="0"
         x="0"
         style="overflow:visible"
         xlink:href="#rocketClip"
         overflow="visible"
         id="use7697" />
    </clipPath>
    <clipPath
       id="clipPath7699">
      <use
         height="100%"
         width="100%"
         y="0"
         x="0"
         style="overflow:visible"
         xlink:href="#rocketClip"
         overflow="visible"
         id="use7701" />
    </clipPath>
    <clipPath
       id="rainbowClip-5">
      <use
         xlink:href="#rocketClip"
         overflow="visible"
         id="use8034"
         style="overflow:visible"
         x="0"
         y="0"
         width="100%"
         height="100%" />
    </clipPath>
  </defs>
  <sodipodi:namedview
     bordercolor="#666666"
     inkscape:pageshadow="2"
     inkscape:window-y="18"
     pagecolor="#ffffff"
     inkscape:window-height="750"
     inkscape:window-maximized="1"
     inkscape:zoom="5.87"
     inkscape:window-x="0"
     showgrid="false"
     borderopacity="1.0"
     inkscape:current-layer="g5220"
     inkscape:cx="3.5630694"
     inkscape:cy="8.1238643"
     units="px"
     inkscape:window-width="1366"
     inkscape:pageopacity="0.0"
     inkscape:document-units="px"
     id="namedview5218" />
  <g
     inkscape:label="Layer 1"
     inkscape:groupmode="layer"
     transform="translate(0,-1022.4)"
     id="g5220">
    <g
       id="g4189"
       transform="translate(-35.537545,8.7561674)">
      <path
         style="opacity:0.24600004;fill:#1a1a1a;filter:url(#filter4185)"
         id="path5222"
         inkscape:connector-curvature="0"
         d="m 50.953908,1040.6 c 0,-0.2143 0.21433,-0.3215 0.64298,-0.3215 l 0.64298,0 0,-4.1793 0,-4.1794 -1.661,0.014 -1.661,0.014 -1.8926,2.2364 c -1.8563,2.1936 -1.9101,2.2364 -2.8066,2.2364 -1.3808,0 -1.6234,-0.3948 -1.6234,-2.6423 0,-1.5091 0.06044,-1.8585 0.32149,-1.8585 0.17682,0 0.32149,-0.1447 0.32149,-0.3215 0,-0.2492 0.30129,-0.3263 1.3395,-0.343 1.1725,-0.019 1.246,-0.043 0.5894,-0.1913 -0.41258,-0.093 -1.3047,-0.2353 -1.9825,-0.3154 l -1.2324,-0.1456 0,-1.2551 0,-1.2551 1.2324,-0.1457 c 0.67781,-0.08 1.5699,-0.222 1.9825,-0.3153 0.6566,-0.1486 0.5831,-0.1725 -0.5894,-0.1913 -1.0382,-0.017 -1.3395,-0.094 -1.3395,-0.343 0,-0.1769 -0.14467,-0.3215 -0.32149,-0.3215 -0.26154,0 -0.32149,-0.3535 -0.32149,-1.8957 0,-2.225 0.24236,-2.6052 1.6607,-2.6052 0.8492,0 0.93626,0.07 2.7694,2.2365 l 1.8926,2.2364 1.661,0.014 1.661,0.014 0,-4.1794 0,-4.1793 -0.64298,0 c -0.42865,0 -0.64298,-0.1072 -0.64298,-0.3215 0,-0.2731 0.54031,-0.321 3.59,-0.3182 4.1831,0 5.7137,0.4542 2.3441,0.6897 l -0.81724,0.057 2.8598,3.4292 c 2.3827,2.857 2.966,3.44 3.4963,3.4941 0.35007,0.036 1.6492,0.3468 2.8869,0.6913 1.5462,0.4303 3.3907,0.7327 5.894,0.9663 2.0039,0.1871 4.3969,0.5306 5.3176,0.7634 2.027,0.5125 4.0055,1.2346 4.0055,1.462 0,0.6631 -4.8968,1.8455 -9.3232,2.2512 -2.6195,0.2401 -4.2759,0.5152 -5.8935,0.9789 -1.2375,0.3547 -2.5395,0.6505 -2.8934,0.6573 -0.5652,0.011 -0.99228,0.4344 -3.5126,3.4828 l -2.8692,3.4704 0.83312,0.057 c 3.3923,0.2326 1.8622,0.6859 -2.3282,0.6897 -3.0496,0 -3.59,-0.045 -3.59,-0.3182 z" />
      <path
         style="fill:#400973"
         id="path5224"
         inkscape:connector-curvature="0"
         d="m 48.953908,1038.6 c 0,-0.2143 0.21433,-0.3215 0.64298,-0.3215 l 0.64298,0 0,-4.1793 0,-4.1794 -1.661,0.014 -1.661,0.014 -1.8926,2.2364 c -1.8563,2.1936 -1.9101,2.2364 -2.8066,2.2364 -1.3808,0 -1.6234,-0.3948 -1.6234,-2.6423 0,-1.5091 0.06044,-1.8585 0.32149,-1.8585 0.17682,0 0.32149,-0.1447 0.32149,-0.3215 0,-0.2492 0.30129,-0.3263 1.3395,-0.343 1.1725,-0.019 1.246,-0.043 0.5894,-0.1913 -0.41258,-0.093 -1.3047,-0.2353 -1.9825,-0.3154 l -1.2324,-0.1456 0,-1.2551 0,-1.2551 1.2324,-0.1457 c 0.67781,-0.08 1.5699,-0.222 1.9825,-0.3153 0.6566,-0.1486 0.5831,-0.1725 -0.5894,-0.1913 -1.0382,-0.017 -1.3395,-0.094 -1.3395,-0.343 0,-0.1769 -0.14467,-0.3215 -0.32149,-0.3215 -0.26154,0 -0.32149,-0.3535 -0.32149,-1.8957 0,-2.225 0.24236,-2.6052 1.6607,-2.6052 0.8492,0 0.93626,0.07 2.7694,2.2365 l 1.8926,2.2364 1.661,0.014 1.661,0.014 0,-4.1794 0,-4.1793 -0.64298,0 c -0.42865,0 -0.64298,-0.1072 -0.64298,-0.3215 0,-0.2731 0.54031,-0.321 3.59,-0.3182 4.1831,0 5.7137,0.4542 2.3441,0.6897 l -0.81724,0.057 2.8598,3.4292 c 2.3827,2.857 2.966,3.44 3.4963,3.4941 0.35007,0.036 1.6492,0.3468 2.8869,0.6913 1.5462,0.4303 3.3907,0.7327 5.894,0.9663 2.0039,0.1871 4.3969,0.5306 5.3176,0.7634 2.027,0.5125 4.0055,1.2346 4.0055,1.462 0,0.6631 -4.8968,1.8455 -9.3232,2.2512 -2.6195,0.2401 -4.2759,0.5152 -5.8935,0.9789 -1.2375,0.3547 -2.5395,0.6505 -2.8934,0.6573 -0.5652,0.011 -0.99228,0.4344 -3.5126,3.4828 l -2.8692,3.4704 0.83312,0.057 c 3.3923,0.2326 1.8622,0.6859 -2.3282,0.6897 -3.0496,0 -3.59,-0.045 -3.59,-0.3182 z" />
      <rect
         style="fill:#cc583f"
         transform="translate(-39.744464,635.14447)"
         id="rect6970"
         height="212.7"
         width="10"
         clip-path="url(#rainbowClip-3)"
         y="263.29999"
         x="275" />
      <rect
         style="fill:#ecb447"
         transform="translate(-39.744464,635.14447)"
         id="rect6972"
         height="212.7"
         width="10"
         clip-path="url(#rainbowClip-3)"
         y="263.29999"
         x="285" />
      <rect
         style="fill:#75c095"
         transform="translate(-39.744464,635.14447)"
         id="rect6974"
         height="212.7"
         width="10"
         clip-path="url(#rainbowClip-3)"
         y="263.29999"
         x="295" />
      <rect
         style="fill:#5991aa"
         transform="translate(-39.744464,635.14447)"
         id="rect6976"
         height="212.7"
         width="10"
         clip-path="url(#rainbowClip-3)"
         y="263.29999"
         x="305" />
      <rect
         style="fill:#7d6aad"
         transform="translate(-39.744464,635.14447)"
         id="rect6978"
         height="212.7"
         width="10"
         clip-path="url(#rainbowClip-3)"
         y="263.29999"
         x="315" />
      <rect
         transform="translate(34.241908,1002.4)"
         id="rect8096"
         height="212.7"
         width="10"
         clip-path="url(#rainbowClip-5)"
         y="263.29999"
         x="305"
         style="opacity:1;fill:#7204ff;fill-opacity:1" />
    </g>
  </g>
</svg>
